<svg width="214" height="176" viewBox="0 0 214 176" fill="none" xmlns="http://www.w3.org/2000/svg">
<path d="M0 0V176H40V117L52 104L111 176H163L81 78L153 5.5C149.5 3 142 0 136 0H107L39.5 69L40 0H0Z" fill="url(#paint0_linear_24_52)"/>
<path d="M51 0V40L91 0H51Z" fill="url(#paint1_linear_24_52)"/>
<path d="M164 8L135 38C166.2 53.2 146 79 131 79H95L175 176H214L158.5 110C216.9 67.6 186.5 24.3333 164 8Z" fill="url(#paint2_linear_24_52)"/>
<path d="M52 129.492V176H97L84.3301 161.881L55.3159 127L52 129.492Z" fill="url(#paint3_linear_24_52)"/>
<defs>
<linearGradient id="paint0_linear_24_52" x1="33.4811" y1="12.2945" x2="71.7676" y2="184.502" gradientUnits="userSpaceOnUse">
<stop stop-color="#1990BA"/>
<stop offset="1" stop-color="#194574"/>
</linearGradient>
<linearGradient id="paint1_linear_24_52" x1="33.4811" y1="12.2945" x2="71.7676" y2="184.502" gradientUnits="userSpaceOnUse">
<stop stop-color="#1990BA"/>
<stop offset="1" stop-color="#194574"/>
</linearGradient>
<linearGradient id="paint2_linear_24_52" x1="33.4811" y1="12.2945" x2="71.7676" y2="184.502" gradientUnits="userSpaceOnUse">
<stop stop-color="#1990BA"/>
<stop offset="1" stop-color="#194574"/>
</linearGradient>
<linearGradient id="paint3_linear_24_52" x1="33.4811" y1="12.2945" x2="71.7676" y2="184.502" gradientUnits="userSpaceOnUse">
<stop stop-color="#1990BA"/>
<stop offset="1" stop-color="#194574"/>
</linearGradient>
</defs>
</svg>
