<svg width="216" height="131" viewBox="0 0 216 131" fill="none" xmlns="http://www.w3.org/2000/svg">
<path d="M20 2L4 100.5L59 34.5L62 2H20Z" fill="url(#paint0_linear_24_54)"/>
<path d="M20 2L4 100.5L59 34.5L62 2H20Z" fill="url(#paint1_linear_24_54)"/>
<path d="M4 129.325L99.5 9.3252C96.6667 8.3252 195.8 6.9252 205 9.3252C214.2 11.7252 214.833 21.6585 214 26.3252L202 57.8252C198.5 72.4998 192.5 77.8252 188.5 78.3252H166.5L193.5 129.325H156.5L124.5 57.8252H166.5L173.5 38.8252C175.5 31.6252 171.333 29.4919 169 29.3252H126L46.5 129.325H4Z" fill="url(#paint2_linear_24_54)"/>
<path d="M4 129.325L99.5 9.3252C96.6667 8.3252 195.8 6.9252 205 9.3252C214.2 11.7252 214.833 21.6585 214 26.3252L202 57.8252C198.5 72.4998 192.5 77.8252 188.5 78.3252H166.5L193.5 129.325H156.5L124.5 57.8252H166.5L173.5 38.8252C175.5 31.6252 171.333 29.4919 169 29.3252H126L46.5 129.325H4Z" fill="url(#paint3_linear_24_54)"/>
<path d="M78 109L110 69L140.5 129H87L78 109Z" fill="url(#paint4_linear_24_54)"/>
<path d="M78 109L110 69L140.5 129H87L78 109Z" fill="url(#paint5_linear_24_54)"/>
<path d="M20 2L4 100.5L59 34.5L62 2H20Z" stroke="url(#paint6_linear_24_54)" stroke-width="3"/>
<path d="M4 129.325L99.5 9.3252C96.6667 8.3252 195.8 6.9252 205 9.3252C214.2 11.7252 214.833 21.6585 214 26.3252L202 57.8252C198.5 72.4998 192.5 77.8252 188.5 78.3252H166.5L193.5 129.325H156.5L124.5 57.8252H166.5L173.5 38.8252C175.5 31.6252 171.333 29.4919 169 29.3252H126L46.5 129.325H4Z" stroke="url(#paint7_linear_24_54)" stroke-width="3"/>
<path d="M78 109L110 69L140.5 129H87L78 109Z" stroke="url(#paint8_linear_24_54)" stroke-width="3"/>
<defs>
<linearGradient id="paint0_linear_24_54" x1="109.134" y1="2" x2="109.134" y2="129.325" gradientUnits="userSpaceOnUse">
<stop stop-color="#D9D9D9"/>
<stop offset="1" stop-color="#737373"/>
</linearGradient>
<linearGradient id="paint1_linear_24_54" x1="36.8971" y1="10.8943" x2="57.7401" y2="138.222" gradientUnits="userSpaceOnUse">
<stop stop-color="#1990BA"/>
<stop offset="1" stop-color="#194574"/>
</linearGradient>
<linearGradient id="paint2_linear_24_54" x1="109.134" y1="2" x2="109.134" y2="129.325" gradientUnits="userSpaceOnUse">
<stop stop-color="#D9D9D9"/>
<stop offset="1" stop-color="#737373"/>
</linearGradient>
<linearGradient id="paint3_linear_24_54" x1="36.8971" y1="10.8943" x2="57.7401" y2="138.222" gradientUnits="userSpaceOnUse">
<stop stop-color="#1990BA"/>
<stop offset="1" stop-color="#194574"/>
</linearGradient>
<linearGradient id="paint4_linear_24_54" x1="109.134" y1="2" x2="109.134" y2="129.325" gradientUnits="userSpaceOnUse">
<stop stop-color="#D9D9D9"/>
<stop offset="1" stop-color="#737373"/>
</linearGradient>
<linearGradient id="paint5_linear_24_54" x1="36.8971" y1="10.8943" x2="57.7401" y2="138.222" gradientUnits="userSpaceOnUse">
<stop stop-color="#1990BA"/>
<stop offset="1" stop-color="#194574"/>
</linearGradient>
<linearGradient id="paint6_linear_24_54" x1="36.8971" y1="10.8943" x2="57.7401" y2="138.222" gradientUnits="userSpaceOnUse">
<stop stop-color="#1990BA"/>
<stop offset="1" stop-color="#194574"/>
</linearGradient>
<linearGradient id="paint7_linear_24_54" x1="36.8971" y1="10.8943" x2="57.7401" y2="138.222" gradientUnits="userSpaceOnUse">
<stop stop-color="#1990BA"/>
<stop offset="1" stop-color="#194574"/>
</linearGradient>
<linearGradient id="paint8_linear_24_54" x1="36.8971" y1="10.8943" x2="57.7401" y2="138.222" gradientUnits="userSpaceOnUse">
<stop stop-color="#1990BA"/>
<stop offset="1" stop-color="#194574"/>
</linearGradient>
</defs>
</svg>
